<svg viewBox="0 0 77 77" fill="none" xmlns="http://www.w3.org/2000/svg">
<path d="M42.0412 44.4434C42.0412 40.302 43.6864 36.3302 46.6148 33.4017C49.5432 30.4733 53.515 28.8281 57.6565 28.8281C57.6565 27.5539 57.1503 26.3318 56.2492 25.4307C55.3482 24.5296 54.1261 24.0234 52.8518 24.0234H24.0236C22.7493 24.0234 21.5272 24.5296 20.6261 25.4307C19.7251 26.3318 19.2189 27.5539 19.2189 28.8281C23.3603 28.8281 27.3321 30.4733 30.2605 33.4017C33.189 36.3302 34.8342 40.302 34.8342 44.4434V45.1281L38.4377 44.4434L42.0412 45.1281C42.0412 44.8999 42.0412 44.6716 42.0412 44.4434Z" fill="#A8DBA8"/>
<path d="M28.8281 19.2185H48.0469C48.6841 19.2185 49.2951 19.4716 49.7457 19.9221C50.1962 20.3727 50.4493 20.9837 50.4493 21.6209V24.0232H26.4258V21.6209C26.4258 20.9837 26.6789 20.3727 27.1294 19.9221C27.5799 19.4716 28.191 19.2185 28.8281 19.2185Z" fill="#79BD9A"/>
<path d="M38.4376 38.4375C41.0912 38.4375 43.2423 36.2864 43.2423 33.6328C43.2423 30.9793 41.0912 28.8281 38.4376 28.8281C35.7841 28.8281 33.6329 30.9793 33.6329 33.6328C33.6329 36.2864 35.7841 38.4375 38.4376 38.4375Z" fill="#CFF09E"/>
<path d="M52.8516 45.6443L57.6563 55.2537H48.0469L52.8516 45.6443Z" fill="#79BD9A"/>
<path d="M60.0587 40.8398L67.2658 55.2539H52.8517L60.0587 40.8398Z" fill="#A8DBA8"/>
<path d="M14.4141 45.6443L19.2188 55.2537H9.60938L14.4141 45.6443Z" fill="#79BD9A"/>
<path d="M21.6211 40.8398L28.8282 55.2539H14.4141L21.6211 40.8398Z" fill="#A8DBA8"/>
<path d="M58.7374 27.687C58.4727 26.3194 57.7409 25.0863 56.6671 24.1989C55.5934 23.3114 54.2446 22.8248 52.8516 22.8223H51.6504V21.6211C51.6504 20.6654 51.2708 19.7488 50.595 19.073C49.9192 18.3972 49.0026 18.0176 48.0469 18.0176H28.8281C27.8724 18.0176 26.9558 18.3972 26.28 19.073C25.6042 19.7488 25.2246 20.6654 25.2246 21.6211V22.8223H24.0234C22.6304 22.8248 21.2816 23.3114 20.2079 24.1989C19.1342 25.0863 18.4023 26.3194 18.1376 27.687C14.9354 27.8931 11.8589 29.0111 9.27147 30.909C6.68401 32.8069 4.69358 35.4055 3.53516 38.398C2.37674 41.3905 2.09869 44.6519 2.73384 47.7973C3.36899 50.9427 4.89081 53.8408 7.11966 56.1493C9.34851 58.4578 12.1913 60.0804 15.3125 60.8255C18.4337 61.5707 21.7029 61.4073 24.7342 60.3546C27.7655 59.302 30.4324 57.404 32.4199 54.8847C34.4075 52.3655 35.6327 49.3302 35.9511 46.1371L38.4375 45.6446L40.9239 46.1131C41.2378 49.3077 42.4594 52.3458 44.4445 54.8684C46.4296 57.391 49.0953 59.2928 52.1266 60.349C55.1579 61.4052 58.4281 61.5718 61.551 60.829C64.6739 60.0862 67.519 58.4652 69.7501 56.1573C71.9813 53.8494 73.5053 50.9512 74.1421 47.805C74.7789 44.6587 74.5019 41.396 73.3438 38.4021C72.1857 35.4083 70.195 32.8084 67.6067 30.9097C65.0184 29.011 61.9408 27.8927 58.7374 27.687ZM27.6269 21.6211C27.6269 21.3025 27.7535 20.997 27.9787 20.7717C28.204 20.5465 28.5095 20.4199 28.8281 20.4199H48.0469C48.3655 20.4199 48.671 20.5465 48.8963 20.7717C49.1215 20.997 49.2481 21.3025 49.2481 21.6211V22.8223H27.6269V21.6211ZM24.0234 25.2246H52.8516C53.6059 25.2294 54.3397 25.4707 54.9496 25.9147C55.5594 26.3586 56.0146 26.9827 56.2509 27.6991C53.9437 27.8992 51.7032 28.5758 49.6708 29.6861C47.6384 30.7963 45.8585 32.3161 44.4434 34.1494C44.4434 33.9692 44.4434 33.813 44.4434 33.6329C44.4434 32.04 43.8106 30.5124 42.6843 29.3861C41.558 28.2597 40.0304 27.627 38.4375 27.627C36.8447 27.627 35.317 28.2597 34.1907 29.3861C33.0644 30.5124 32.4316 32.04 32.4316 33.6329V34.1494C31.0112 32.3104 29.2236 30.7873 27.1825 29.6768C25.1414 28.5663 22.8916 27.8928 20.576 27.6991C20.8149 26.9749 21.2774 26.3452 21.8969 25.9006C22.5163 25.456 23.2609 25.2193 24.0234 25.2246ZM42.041 33.6329C42.041 34.3456 41.8297 35.0423 41.4337 35.6349C41.0378 36.2275 40.475 36.6893 39.8165 36.9621C39.1581 37.2348 38.4335 37.3062 37.7345 37.1671C37.0355 37.0281 36.3934 36.6849 35.8894 36.1809C35.3855 35.677 35.0423 35.0349 34.9032 34.3359C34.7642 33.6369 34.8355 32.9123 35.1083 32.2538C35.381 31.5954 35.8429 31.0326 36.4355 30.6366C37.0281 30.2407 37.7248 30.0293 38.4375 30.0293C39.3932 30.0293 40.3098 30.409 40.9856 31.0848C41.6614 31.7606 42.041 32.6771 42.041 33.6329ZM38.2213 43.2423L36.0352 43.6747C35.9555 41.8982 35.5905 40.1461 34.9541 38.4856C35.9782 39.2262 37.2098 39.6249 38.4735 39.6249C39.7373 39.6249 40.9689 39.2262 41.993 38.4856C41.3566 40.1461 40.9916 41.8982 40.9119 43.6747L38.6537 43.2423C38.5118 43.2062 38.3632 43.2062 38.2213 43.2423Z" fill="#3B8686"/>
<path d="M29.4888 40.8396C29.7616 40.6979 29.9697 40.4571 30.0703 40.1666C30.1708 39.8761 30.1562 39.5581 30.0294 39.2781C28.8384 36.8132 26.8488 34.8236 24.3839 33.6326C24.2411 33.5648 24.0864 33.5257 23.9285 33.5177C23.7707 33.5096 23.6128 33.5328 23.4639 33.5857C23.315 33.6387 23.178 33.7205 23.0607 33.8265C22.9434 33.9324 22.8481 34.0604 22.7803 34.2031C22.7125 34.3459 22.6734 34.5006 22.6654 34.6585C22.6573 34.8163 22.6805 34.9742 22.7335 35.1231C22.7864 35.272 22.8682 35.409 22.9742 35.5263C23.0801 35.6436 23.2081 35.7389 23.3508 35.8067C25.3377 36.7483 26.9377 38.3483 27.8793 40.3351C27.9775 40.5414 28.1325 40.7154 28.3261 40.8366C28.5197 40.9579 28.7439 41.0214 28.9723 41.0198C29.1561 41.0003 29.3328 40.9386 29.4888 40.8396Z" fill="#3B8686"/>
<path d="M30.0294 45.6445C30.6928 45.6445 31.2306 45.1068 31.2306 44.4434C31.2306 43.78 30.6928 43.2422 30.0294 43.2422C29.366 43.2422 28.8282 43.78 28.8282 44.4434C28.8282 45.1068 29.366 45.6445 30.0294 45.6445Z" fill="#3B8686"/>
<path d="M35.0057 44.4436C35.0057 53.2671 27.9278 60.4021 19.2188 60.4021C10.5098 60.4021 3.43192 53.2671 3.43192 44.4436C3.43192 35.6201 10.5098 28.4851 19.2188 28.4851C27.9278 28.4851 35.0057 35.6201 35.0057 44.4436Z" fill="white" stroke="#3B8686" stroke-width="2.05916" />
<path d="M3.60352 44.4433C3.60465 47.5309 4.52108 50.5489 6.23699 53.1157C7.9529 55.6826 10.3912 57.6831 13.2439 58.8646C16.0965 60.046 19.2353 60.3552 22.2636 59.7531C25.2919 59.1511 28.0738 57.6648 30.2576 55.4821L8.17999 33.4045C5.25121 36.3318 3.60504 40.3025 3.60352 44.4433Z" fill="#CFF09E"/>
<path d="M35.0057 44.4436C35.0057 53.2671 27.9278 60.4021 19.2188 60.4021C10.5098 60.4021 3.43192 53.2671 3.43192 44.4436C3.43192 35.6201 10.5098 28.4851 19.2188 28.4851C27.9278 28.4851 35.0057 35.6201 35.0057 44.4436Z" stroke="#3B8686" stroke-width="2.05916"/>
<path d="M73.4433 44.4436C73.4433 53.2671 66.3654 60.4021 57.6564 60.4021C48.9474 60.4021 41.8695 53.2671 41.8695 44.4436C41.8695 35.6201 48.9474 28.4851 57.6564 28.4851C66.3654 28.4851 73.4433 35.6201 73.4433 44.4436Z" fill="white" stroke="#3B8686" stroke-width="2.05916"/>
<path d="M42.0413 44.4433C42.0424 47.5309 42.9588 50.5489 44.6747 53.1157C46.3906 55.6826 48.829 57.6831 51.6816 58.8646C54.5342 60.046 57.673 60.3552 60.7014 59.7531C63.7297 59.1511 66.5115 57.6648 68.6953 55.4821L46.6177 33.4045C43.689 36.3318 42.0428 40.3025 42.0413 44.4433Z" fill="#CFF09E"/>
<path d="M73.4433 44.4436C73.4433 53.2671 66.3654 60.4021 57.6564 60.4021C48.9474 60.4021 41.8695 53.2671 41.8695 44.4436C41.8695 35.6201 48.9474 28.4851 57.6564 28.4851C66.3654 28.4851 73.4433 35.6201 73.4433 44.4436Z" stroke="#3B8686" stroke-width="2.05916"/>
<g>
<path d="M49.7035 44.9928C49.5778 43.903 49.6826 42.8508 49.9676 41.8783C50.9149 38.6465 53.8869 36.2697 57.4122 36.2278V34.1152C57.4122 33.9978 57.5589 33.9349 57.6553 34.0062L62.0022 37.2003C62.0735 37.2548 62.0735 37.3638 62.0022 37.4141L57.6595 40.6082C57.5589 40.6795 57.4164 40.6166 57.4164 40.4993V38.3908C55.0983 38.4285 53.1198 39.8579 52.2689 41.8783C51.9461 42.6413 51.7826 43.4838 51.8288 44.3683C51.8916 45.5839 52.3485 46.7031 53.0695 47.6085C53.4552 48.0906 53.3629 48.7948 52.8641 49.1595C52.3905 49.5074 51.7281 49.411 51.3635 48.9499C50.4706 47.8349 49.8754 46.4767 49.7035 44.9928ZM62.2537 40.9352C62.9789 41.8364 63.4358 42.9598 63.4945 44.1754C63.5406 45.0641 63.3729 45.9067 63.0544 46.6654C62.2034 48.6858 60.2249 50.1194 57.9068 50.1529V48.0445C57.9068 47.9271 57.7601 47.8642 57.6637 47.9355L53.3168 51.1296C53.2456 51.1841 53.2456 51.2931 53.3168 51.3434L57.6595 54.5376C57.7601 54.6088 57.9027 54.5459 57.9027 54.4286V52.3159C61.4279 52.2782 64.4041 49.9014 65.3473 46.6654C65.6323 45.6929 65.7329 44.6407 65.6114 43.5509C65.4437 42.067 64.8484 40.7088 63.9556 39.5938C63.5867 39.1327 62.9286 39.0363 62.4549 39.3842C61.9603 39.7489 61.8681 40.4531 62.2537 40.9352Z" fill="#3B8686"/>
</g>
<g>
<path d="M11.2658 44.9928C11.14 43.903 11.2448 42.8508 11.5299 41.8783C12.4772 38.6465 15.4492 36.2697 18.9745 36.2278V34.1152C18.9745 33.9978 19.1212 33.9349 19.2176 34.0062L23.5645 37.2003C23.6357 37.2548 23.6357 37.3638 23.5645 37.4141L19.2218 40.6082C19.1212 40.6795 18.9787 40.6166 18.9787 40.4993V38.3908C16.6606 38.4285 14.6821 39.8579 13.8311 41.8783C13.5084 42.6413 13.3449 43.4838 13.391 44.3683C13.4539 45.5839 13.9108 46.7031 14.6318 47.6085C15.0174 48.0906 14.9252 48.7948 14.4264 49.1595C13.9527 49.5074 13.2904 49.411 12.9257 48.9499C12.0329 47.8349 11.4376 46.4767 11.2658 44.9928ZM23.816 40.9352C24.5412 41.8364 24.9981 42.9598 25.0568 44.1754C25.1029 45.0641 24.9352 45.9067 24.6166 46.6654C23.7657 48.6858 21.7872 50.1194 19.4691 50.1529V48.0445C19.4691 47.9271 19.3224 47.8642 19.226 47.9355L14.8791 51.1296C14.8078 51.1841 14.8078 51.2931 14.8791 51.3434L19.2218 54.5376C19.3224 54.6088 19.4649 54.5459 19.4649 54.4286V52.3159C22.9902 52.2782 25.9664 49.9014 26.9095 46.6654C27.1946 45.6929 27.2952 44.6407 27.1736 43.5509C27.0059 42.067 26.4107 40.7088 25.5179 39.5938C25.149 39.1327 24.4909 39.0363 24.0172 39.3842C23.5226 39.7489 23.4303 40.4531 23.816 40.9352Z" fill="#3B8686"/>
</g>
</svg>
